<svg xmlns="http://www.w3.org/2000/svg" width="21" height="16" viewBox="0 0 21 16">
    <g fill="#FFF" fill-rule="nonzero" opacity=".6">
        <path d="M17.76 3.215a.885.885 0 0 0-1.036-.087c-1.222.749-7.35 4.517-8.008 5.11-.955.86-.955 2.258 0 3.117.478.43 1.105.645 1.732.645s1.255-.215 1.732-.645c.659-.592 4.846-6.107 5.678-7.206a.681.681 0 0 0-.097-.934zm-6.735 7.101a.883.883 0 0 1-1.154 0 .685.685 0 0 1 0-1.039c.256-.227 1.995-1.344 4.136-2.683-1.488 1.926-2.729 3.492-2.982 3.722z"/>
        <path d="M3.709 13.72l-.993.474a8.284 8.284 0 0 1-.542-7.145l1.138.534a.817.817 0 0 0 1.073-.37.779.779 0 0 0-.378-1.048l-1.123-.527a8.721 8.721 0 0 1 6.607-4.03v1.183c0 .434.36.786.804.786a.795.795 0 0 0 .804-.786V1.608a8.743 8.743 0 0 1 2.766.712.812.812 0 0 0 1.064-.393.78.78 0 0 0-.403-1.04A10.416 10.416 0 0 0 10.295 0c-2.75 0-5.335 1.047-7.28 2.948C1.071 4.848 0 7.376 0 10.064c0 1.986.603 3.918 1.744 5.587a.81.81 0 0 0 1.021.27l1.65-.787c.398-.19.564-.661.37-1.051a.813.813 0 0 0-1.076-.362zM20.075 6.44c-.186-.376-.671-.543-1.084-.374-.413.17-.596.612-.41.987a7.394 7.394 0 0 1 .78 3.313c0 1.376-.39 2.721-1.132 3.926l-1.057-.458c-.408-.177-.898-.02-1.092.353-.195.372-.021.817.387.994l1.722.746c.113.05.233.073.352.073a.844.844 0 0 0 .681-.332C20.385 14.085 21 12.251 21 10.366a8.766 8.766 0 0 0-.925-3.927z"/>
    </g>
</svg>
